# xmcd CD database file
#
# Track frame offsets:
#	150
#	14115
#	29397
#	43747
#	56218
#	72699
#	84247
#	98373
#	112809
#	130064
#
# Disc length: 1916 seconds
#
# Revision: 0
# Processed by: cddbd v1.5.2PL0 Copyright (c) Steve Scherf et al.
# Submitted via: CDex 1.70beta2
#
DISCID=82077a0a
DTITLE=Degarie, Clint - Cdn. - Blues - Blue on Blue
DYEAR=1900
DGENRE=Blues
TTITLE0=Blue on Blue
TTITLE1=I Told You So
TTITLE2=Cowboy Rides Away
TTITLE3=Goodhearted Woman
TTITLE4=Don't Worry about Me
TTITLE5=Waltz across Texas
TTITLE6=On the Other Hand
TTITLE7=Reserve me a Table
TTITLE8=Karen
TTITLE9=I Wouldn't change You if I Could
EXTD=
EXTT0=
EXTT1=
EXTT2=
EXTT3=
EXTT4=
EXTT5=
EXTT6=
EXTT7=
EXTT8=
EXTT9=
PLAYORDER=
